<?xml version="1.0" encoding="UTF-8" standalone="no"?>
<!DOCTYPE svg PUBLIC "-//W3C//DTD SVG 1.1//EN"
 "http://www.w3.org/Graphics/SVG/1.1/DTD/svg11.dtd">
<!-- Generated by graphviz version 2.40.1 (20161225.0304)
 -->
<!-- Title: G Pages: 1 -->
<svg width="216pt" height="350pt"
 viewBox="0.00 0.00 215.89 350.00" xmlns="http://www.w3.org/2000/svg" xmlns:xlink="http://www.w3.org/1999/xlink">
<g id="graph0" class="graph" transform="scale(1 1) rotate(0) translate(4 346)">
<title>G</title>
<polygon fill="#ffffff" stroke="transparent" points="-4,4 -4,-346 211.8916,-346 211.8916,4 -4,4"/>
<!-- Usecase -->
<g id="node1" class="node">
<title>Usecase</title>
<ellipse fill="none" stroke="#000000" cx="50.0456" cy="-324" rx="50.0912" ry="18"/>
<text text-anchor="middle" x="50.0456" y="-320.3" font-family="Times,serif" font-size="14.00" fill="#000000">Usecase</text>
</g>
<!-- Feature -->
<g id="node2" class="node">
<title>Feature</title>
<ellipse fill="none" stroke="#000000" cx="106.0456" cy="-251" rx="46.5926" ry="18"/>
<text text-anchor="middle" x="106.0456" y="-247.3" font-family="Times,serif" font-size="14.00" fill="#000000">Feature</text>
</g>
<!-- Usecase&#45;&gt;Feature -->
<g id="edge1" class="edge">
<title>Usecase&#45;&gt;Feature</title>
<path fill="none" stroke="#000000" d="M63.6016,-306.3287C70.4802,-297.362 78.9603,-286.3076 86.5277,-276.443"/>
<polygon fill="#000000" stroke="#000000" points="89.3047,-278.5732 92.6144,-268.5085 83.7507,-274.3125 89.3047,-278.5732"/>
</g>
<!-- OpenAPI -->
<g id="node4" class="node">
<title>OpenAPI</title>
<ellipse fill="none" stroke="#000000" cx="66.0456" cy="-178" rx="52.7911" ry="18"/>
<text text-anchor="middle" x="66.0456" y="-174.3" font-family="Times,serif" font-size="14.00" fill="#000000">OpenAPI</text>
</g>
<!-- Feature&#45;&gt;OpenAPI -->
<g id="edge3" class="edge">
<title>Feature&#45;&gt;OpenAPI</title>
<path fill="none" stroke="#000000" d="M96.3627,-233.3287C91.6318,-224.695 85.8404,-214.1256 80.5917,-204.5466"/>
<polygon fill="#000000" stroke="#000000" points="83.6527,-202.8494 75.7779,-195.7615 77.5139,-206.2132 83.6527,-202.8494"/>
</g>
<!-- Test -->
<g id="node5" class="node">
<title>Test</title>
<ellipse fill="none" stroke="#000000" cx="106.0456" cy="-105" rx="30.5947" ry="18"/>
<text text-anchor="middle" x="106.0456" y="-101.3" font-family="Times,serif" font-size="14.00" fill="#000000">Test</text>
</g>
<!-- Feature&#45;&gt;Test -->
<g id="edge4" class="edge">
<title>Feature&#45;&gt;Test</title>
<path fill="none" stroke="#000000" d="M115.1785,-233.1947C120.0562,-222.6762 125.5562,-208.9262 128.0456,-196 131.0713,-180.2887 131.0713,-175.7113 128.0456,-160 126.2086,-150.4616 122.7323,-140.4745 119.0765,-131.6684"/>
<polygon fill="#000000" stroke="#000000" points="122.1887,-130.0515 114.9504,-122.3147 115.7841,-132.8767 122.1887,-130.0515"/>
</g>
<!-- Quality -->
<g id="node3" class="node">
<title>Quality</title>
<ellipse fill="none" stroke="#000000" cx="163.0456" cy="-324" rx="44.6926" ry="18"/>
<text text-anchor="middle" x="163.0456" y="-320.3" font-family="Times,serif" font-size="14.00" fill="#000000">Quality</text>
</g>
<!-- Quality&#45;&gt;Feature -->
<g id="edge2" class="edge">
<title>Quality&#45;&gt;Feature</title>
<path fill="none" stroke="#000000" d="M149.5374,-306.7C142.4902,-297.6747 133.7333,-286.4598 125.9283,-276.4638"/>
<polygon fill="#000000" stroke="#000000" points="128.5674,-274.1567 119.6543,-268.4288 123.0501,-278.4647 128.5674,-274.1567"/>
</g>
<!-- OpenAPI&#45;&gt;Test -->
<g id="edge5" class="edge">
<title>OpenAPI&#45;&gt;Test</title>
<path fill="none" stroke="#000000" d="M75.9332,-159.9551C80.6528,-151.3419 86.3918,-140.8681 91.5887,-131.3837"/>
<polygon fill="#000000" stroke="#000000" points="94.8111,-132.7863 96.5471,-122.3347 88.6723,-129.4226 94.8111,-132.7863"/>
</g>
<!-- API -->
<g id="node6" class="node">
<title>API</title>
<ellipse fill="none" stroke="#000000" cx="106.0456" cy="-18" rx="27.8951" ry="18"/>
<text text-anchor="middle" x="106.0456" y="-14.3" font-family="Times,serif" font-size="14.00" fill="#000000">API</text>
</g>
<!-- Test&#45;&gt;API -->
<g id="edge6" class="edge">
<title>Test&#45;&gt;API</title>
<path fill="none" stroke="#000000" d="M106.0456,-86.9735C106.0456,-75.1918 106.0456,-59.5607 106.0456,-46.1581"/>
<polygon fill="#000000" stroke="#000000" points="109.5457,-46.0033 106.0456,-36.0034 102.5457,-46.0034 109.5457,-46.0033"/>
<text text-anchor="middle" x="144.5456" y="-57.8" font-family="Times,serif" font-size="14.00" fill="#000000"> BDD&#45;style</text>
</g>
</g>
</svg>
