<?xml version="1.0" encoding="UTF-8" standalone="no"?>
<!DOCTYPE svg PUBLIC "-//W3C//DTD SVG 1.1//EN"
 "http://www.w3.org/Graphics/SVG/1.1/DTD/svg11.dtd">
<!-- Generated by graphviz version 2.40.1 (20161225.0304)
 -->
<!-- Title: %3 Pages: 1 -->
<svg width="276pt" height="378pt"
 viewBox="0.00 0.00 276.24 378.00" xmlns="http://www.w3.org/2000/svg" xmlns:xlink="http://www.w3.org/1999/xlink">
<g id="graph0" class="graph" transform="scale(1 1) rotate(0) translate(4 374)">
<title>%3</title>
<polygon fill="#ffffff" stroke="transparent" points="-4,4 -4,-374 272.2405,-374 272.2405,4 -4,4"/>
<!-- Tests -->
<g id="node1" class="node">
<title>Tests</title>
<polygon fill="none" stroke="#000000" points="148.0952,-123 93.0952,-123 93.0952,-87 148.0952,-87 148.0952,-123"/>
<text text-anchor="middle" x="120.5952" y="-101.3" font-family="Times,serif" font-size="14.00" fill="#000000">Tests</text>
</g>
<!-- API -->
<g id="node2" class="node">
<title>API</title>
<polygon fill="none" stroke="#000000" points="147.5952,-36 93.5952,-36 93.5952,0 147.5952,0 147.5952,-36"/>
<text text-anchor="middle" x="120.5952" y="-14.3" font-family="Times,serif" font-size="14.00" fill="#000000">API</text>
</g>
<!-- Tests&#45;&gt;API -->
<g id="edge6" class="edge">
<title>Tests&#45;&gt;API</title>
<path fill="none" stroke="#000000" d="M120.5952,-86.9735C120.5952,-75.1918 120.5952,-59.5607 120.5952,-46.1581"/>
<polygon fill="#000000" stroke="#000000" points="124.0953,-46.0033 120.5952,-36.0034 117.0953,-46.0034 124.0953,-46.0033"/>
<text text-anchor="middle" x="161.5952" y="-57.8" font-family="Times,serif" font-size="14.00" fill="#000000"> &#160;BDD&#45;style</text>
</g>
<!-- Usecases -->
<g id="node3" class="node">
<title>Usecases</title>
<ellipse fill="none" stroke="#000000" cx="54.5952" cy="-352" rx="54.6905" ry="18"/>
<text text-anchor="middle" x="54.5952" y="-348.3" font-family="Times,serif" font-size="14.00" fill="#000000">Usecases</text>
</g>
<!-- Features -->
<g id="node5" class="node">
<title>Features</title>
<ellipse fill="none" stroke="#000000" cx="116.5952" cy="-265" rx="51.9908" ry="18"/>
<text text-anchor="middle" x="116.5952" y="-261.3" font-family="Times,serif" font-size="14.00" fill="#000000">Features</text>
</g>
<!-- Usecases&#45;&gt;Features -->
<g id="edge1" class="edge">
<title>Usecases&#45;&gt;Features</title>
<path fill="none" stroke="#000000" d="M56.6356,-333.7868C58.4824,-323.4657 61.9824,-310.7157 68.5952,-301 72.1722,-295.7444 76.7719,-290.9486 81.7032,-286.6921"/>
<polygon fill="#000000" stroke="#000000" points="83.9311,-289.3927 89.6262,-280.4586 79.6028,-283.8912 83.9311,-289.3927"/>
<text text-anchor="middle" x="117.0952" y="-304.8" font-family="Times,serif" font-size="14.00" fill="#000000">translate into</text>
</g>
<!-- Qualities -->
<g id="node4" class="node">
<title>Qualities</title>
<ellipse fill="none" stroke="#000000" cx="179.5952" cy="-352" rx="52.7911" ry="18"/>
<text text-anchor="middle" x="179.5952" y="-348.3" font-family="Times,serif" font-size="14.00" fill="#000000">Qualities</text>
</g>
<!-- Qualities&#45;&gt;Features -->
<g id="edge2" class="edge">
<title>Qualities&#45;&gt;Features</title>
<path fill="none" stroke="#000000" d="M177.5906,-333.7622C175.7558,-323.433 172.2558,-310.683 165.5952,-301 161.944,-295.692 157.2487,-290.8688 152.2147,-286.6009"/>
<polygon fill="#000000" stroke="#000000" points="154.1824,-283.6984 144.1268,-280.3615 149.9067,-289.2409 154.1824,-283.6984"/>
</g>
<!-- Features&#45;&gt;Tests -->
<g id="edge4" class="edge">
<title>Features&#45;&gt;Tests</title>
<path fill="none" stroke="#000000" d="M115.3452,-246.6769C114.6786,-235.9858 113.9286,-222.2358 113.5952,-210 113.1593,-194.0059 112.7867,-189.9796 113.5952,-174 114.2728,-160.6069 115.6857,-145.8073 117.0659,-133.36"/>
<polygon fill="#000000" stroke="#000000" points="120.5779,-133.4577 118.2511,-123.1215 113.6243,-132.6527 120.5779,-133.4577"/>
<text text-anchor="middle" x="133.5952" y="-188.3" font-family="Times,serif" font-size="14.00" fill="#000000"> &#160;map</text>
</g>
<!-- OpenAPI -->
<g id="node6" class="node">
<title>OpenAPI</title>
<ellipse fill="none" stroke="#000000" cx="215.5952" cy="-192" rx="52.7911" ry="18"/>
<text text-anchor="middle" x="215.5952" y="-188.3" font-family="Times,serif" font-size="14.00" fill="#000000">OpenAPI</text>
</g>
<!-- Features&#45;&gt;OpenAPI -->
<g id="edge3" class="edge">
<title>Features&#45;&gt;OpenAPI</title>
<path fill="none" stroke="#000000" d="M139.0598,-248.4352C152.6036,-238.4483 170.0426,-225.5892 184.8526,-214.6687"/>
<polygon fill="#000000" stroke="#000000" points="187.2481,-217.2511 193.2194,-208.4993 183.0937,-211.6171 187.2481,-217.2511"/>
</g>
<!-- OpenAPI&#45;&gt;Tests -->
<g id="edge5" class="edge">
<title>OpenAPI&#45;&gt;Tests</title>
<path fill="none" stroke="#000000" d="M196.8262,-174.8116C182.7923,-161.9595 163.3987,-144.1991 147.685,-129.8086"/>
<polygon fill="#000000" stroke="#000000" points="150.0449,-127.2238 140.3062,-123.0512 145.3172,-132.3861 150.0449,-127.2238"/>
<text text-anchor="middle" x="205.5952" y="-144.8" font-family="Times,serif" font-size="14.00" fill="#000000">generate</text>
</g>
</g>
</svg>
